<mxfile host="65bd71144e">
    <diagram id="hyXTzDfZUhhmsDUPOdG6" name="Page-1">
        <mxGraphModel dx="906" dy="906" grid="1" gridSize="10" guides="1" tooltips="1" connect="1" arrows="1" fold="1" page="1" pageScale="1" pageWidth="300" pageHeight="900" background="#FFFFFF" math="0" shadow="0">
            <root>
                <mxCell id="0"/>
                <mxCell id="1" parent="0"/>
                <mxCell id="diSnjzynUhi2UMkX59iC-12" value="" style="edgeStyle=orthogonalEdgeStyle;rounded=0;orthogonalLoop=1;jettySize=auto;html=1;fontSize=18;strokeColor=#000000;strokeWidth=2;entryX=0.5;entryY=0;entryDx=0;entryDy=0;" parent="1" source="diSnjzynUhi2UMkX59iC-5" target="118" edge="1">
                    <mxGeometry relative="1" as="geometry">
                        <mxPoint x="789.2" y="130" as="targetPoint"/>
                    </mxGeometry>
                </mxCell>
                <mxCell id="diSnjzynUhi2UMkX59iC-5" value="INICIO" style="strokeWidth=3;html=1;shape=mxgraph.flowchart.terminator;whiteSpace=wrap;fontSize=18;fillColor=#FF0000;fontStyle=1;fontColor=#000000;strokeColor=#000000;" parent="1" vertex="1">
                    <mxGeometry x="736.63" y="10" width="105" height="60" as="geometry"/>
                </mxCell>
                <mxCell id="diSnjzynUhi2UMkX59iC-6" value="FIN" style="strokeWidth=3;html=1;shape=mxgraph.flowchart.terminator;whiteSpace=wrap;fontSize=18;fillColor=#FF0000;fontColor=#000000;strokeColor=#000000;fontStyle=1" parent="1" vertex="1">
                    <mxGeometry x="995" y="659" width="100" height="60" as="geometry"/>
                </mxCell>
                <mxCell id="93" value="" style="edgeStyle=none;html=1;strokeColor=#000000;strokeWidth=2;exitX=0.5;exitY=0.833;exitDx=0;exitDy=0;exitPerimeter=0;" parent="1" source="diSnjzynUhi2UMkX59iC-7" target="diSnjzynUhi2UMkX59iC-6" edge="1">
                    <mxGeometry relative="1" as="geometry"/>
                </mxCell>
                <mxCell id="diSnjzynUhi2UMkX59iC-7" value="a単o" style="strokeWidth=3;html=1;shape=mxgraph.flowchart.document2;whiteSpace=wrap;size=0.25;fontSize=18;fillColor=#FF8000;fontColor=#000000;strokeColor=#000000;" parent="1" vertex="1">
                    <mxGeometry x="982.5" y="529" width="125" height="60" as="geometry"/>
                </mxCell>
                <mxCell id="97" style="edgeStyle=none;html=1;exitX=0.5;exitY=1;exitDx=0;exitDy=0;exitPerimeter=0;strokeWidth=2;strokeColor=#000000;entryX=0.5;entryY=0;entryDx=0;entryDy=0;" parent="1" source="2" target="98" edge="1">
                    <mxGeometry relative="1" as="geometry">
                        <mxPoint x="787.9473684210527" y="459" as="targetPoint"/>
                    </mxGeometry>
                </mxCell>
                <mxCell id="2" value="&lt;div&gt;&lt;/div&gt;&lt;font face=&quot;helvetica&quot;&gt;&lt;span style=&quot;font-size: 18px&quot;&gt;poblacion_a &amp;lt; poblacion_b&amp;nbsp;&lt;/span&gt;&lt;br&gt;&lt;/font&gt;" style="strokeWidth=3;html=1;shape=mxgraph.flowchart.decision;whiteSpace=wrap;fillColor=#FFFF00;fontColor=#000000;strokeColor=#000000;" parent="1" vertex="1">
                    <mxGeometry x="689.12" y="329" width="200" height="170" as="geometry"/>
                </mxCell>
                <mxCell id="11" value="&lt;b&gt;&lt;font style=&quot;font-size: 16px&quot;&gt;Falso&lt;/font&gt;&lt;/b&gt;" style="text;html=1;align=center;verticalAlign=middle;resizable=0;points=[];autosize=1;strokeColor=none;fillColor=none;fontColor=#000000;" parent="1" vertex="1">
                    <mxGeometry x="841.63" y="349" width="60" height="20" as="geometry"/>
                </mxCell>
                <mxCell id="12" value="&lt;b&gt;&lt;font style=&quot;font-size: 16px&quot;&gt;Verdadero&lt;/font&gt;&lt;/b&gt;" style="text;html=1;align=center;verticalAlign=middle;resizable=0;points=[];autosize=1;strokeColor=none;fillColor=none;fontSize=16;fontColor=#000000;" parent="1" vertex="1">
                    <mxGeometry x="824" y="479" width="90" height="20" as="geometry"/>
                </mxCell>
                <mxCell id="71" value="" style="edgeStyle=none;html=1;exitX=1;exitY=0.5;exitDx=0;exitDy=0;exitPerimeter=0;entryX=0.5;entryY=0;entryDx=0;entryDy=0;strokeWidth=2;strokeColor=#000000;endArrow=none;entryPerimeter=0;" parent="1" source="2" target="diSnjzynUhi2UMkX59iC-7" edge="1">
                    <mxGeometry relative="1" as="geometry">
                        <mxPoint x="1040" y="599" as="targetPoint"/>
                        <Array as="points">
                            <mxPoint x="1045" y="414"/>
                        </Array>
                        <mxPoint x="920" y="254" as="sourcePoint"/>
                    </mxGeometry>
                </mxCell>
                <mxCell id="99" style="edgeStyle=none;html=1;strokeColor=#000000;strokeWidth=2;exitX=0.5;exitY=1;exitDx=0;exitDy=0;" parent="1" source="98" edge="1">
                    <mxGeometry relative="1" as="geometry">
                        <mxPoint x="790" y="279" as="targetPoint"/>
                        <Array as="points">
                            <mxPoint x="790" y="719"/>
                            <mxPoint x="610" y="719"/>
                            <mxPoint x="610" y="279"/>
                        </Array>
                        <mxPoint x="820" y="679" as="sourcePoint"/>
                    </mxGeometry>
                </mxCell>
                <mxCell id="98" value="&lt;font style=&quot;font-size: 18px&quot;&gt;poblacion_a = poblacion_a + (poblacion_a * tasa_a)&lt;br&gt;poblacion_b = poblacion_b + (poblacion_b * tasa_b)&lt;br&gt;a単o = a単o + 1&lt;br&gt;&lt;/font&gt;" style="rounded=1;whiteSpace=wrap;html=1;absoluteArcSize=1;arcSize=14;strokeWidth=3;fillColor=#00FF00;fontColor=#000000;strokeColor=#000000;" parent="1" vertex="1">
                    <mxGeometry x="668.25" y="539" width="241.74" height="130" as="geometry"/>
                </mxCell>
                <mxCell id="121" style="edgeStyle=none;html=1;exitX=0.5;exitY=1;exitDx=0;exitDy=0;entryX=0.5;entryY=0;entryDx=0;entryDy=0;entryPerimeter=0;strokeWidth=2;strokeColor=#000000;" parent="1" source="118" target="2" edge="1">
                    <mxGeometry relative="1" as="geometry"/>
                </mxCell>
                <mxCell id="118" value="&lt;font style=&quot;font-size: 18px&quot;&gt;a単o = 1980&lt;br&gt;poblacion_a = 3.5&lt;br&gt;tasa_a = 7%&lt;br&gt;poblacion_b = 5&lt;br&gt;tasa_b = 5%&lt;br&gt;&lt;/font&gt;" style="rounded=1;whiteSpace=wrap;html=1;absoluteArcSize=1;arcSize=14;strokeWidth=3;fillColor=#00FF00;fontColor=#000000;strokeColor=#000000;" parent="1" vertex="1">
                    <mxGeometry x="698.6899999999999" y="130" width="180.86" height="120" as="geometry"/>
                </mxCell>
            </root>
        </mxGraphModel>
    </diagram>
</mxfile>